/* XPM */
static char *_e7d49c10b4b43ebbf2d376bc8eee0fd4wefLB3WWOzK4Xsw[] = {
/* columns rows colors chars-per-pixel */
"50 50 123 2 ",
"   c None",
".  c #000000",
"X  c #0D0D0D",
"o  c #110F0F",
"O  c #110F10",
"+  c #151313",
"@  c #191716",
"#  c #1A1817",
"$  c #1D1B1B",
"%  c #221F1F",
"&  c #222221",
"*  c #292625",
"=  c #272728",
"-  c #2B2A2A",
";  c #312D2D",
":  c #333333",
">  c #393635",
",  c #3C3A3A",
"<  c #423F3E",
"1  c #454545",
"2  c #4B4645",
"3  c #4C4B4B",
"4  c #544E4D",
"5  c #525252",
"6  c #5A5252",
"7  c #5E5E5E",
"8  c #645C5A",
"9  c #69605F",
"0  c #626262",
"q  c #6D6563",
"w  c #6D6D6D",
"e  c #706766",
"r  c #746B69",
"t  c #786E6C",
"y  c #7A706E",
"u  c #737373",
"i  c #7E7472",
"p  c #797877",
"a  c #7B7B7B",
"s  c #817774",
"d  c #827B7A",
"f  c #897E7C",
"g  c #8C817E",
"h  c #848484",
"j  c #8B8685",
"k  c #8D8D8C",
"l  c #958986",
"z  c #948F8F",
"x  c #988A89",
"c  c #9D908E",
"v  c #939292",
"b  c #9E9E9E",
"n  c #A59693",
"m  c #A79895",
"M  c #A99996",
"N  c #A19E9F",
"B  c #AA9B98",
"V  c #AEA09D",
"C  c #A2A2A2",
"Z  c #ADADAD",
"A  c #B2A4A1",
"S  c #BAAFAD",
"D  c #B0B0AF",
"F  c #BCB1AE",
"G  c #B4B4B4",
"H  c #BABABA",
"J  c #C0B6B5",
"K  c #C4C4C4",
"L  c #C6C6C6",
"P  c #C2C2C2",
"I  c #CCC4C3",
"U  c #CCC5C3",
"Y  c #CCC5C4",
"T  c #C8C8C8",
"R  c gray79",
"E  c #CBCBCB",
"W  c #CCC9C8",
"Q  c #CDCDCD",
"!  c #CECECE",
"~  c #D2CBCA",
"^  c #D3CCCB",
"/  c #D4CFCD",
"(  c gray82",
")  c #D2D2D2",
"_  c LightGray",
"`  c #D7D2D0",
"'  c gray83",
"]  c #D5D5D5",
"[  c #D8D6D4",
"{  c #DDDDDD",
"}  c gray87",
"|  c #DFDFDF",
" . c #E0DDDB",
".. c #E4E0DF",
"X. c #E2E2E2",
"o. c gray89",
"O. c #E6E3E2",
"+. c #E7E7E7",
"@. c #E6E6E6",
"#. c gray91",
"$. c #E9E9E9",
"%. c #EAEAEA",
"&. c #ECECEC",
"*. c gray93",
"=. c #EEEEEE",
"-. c #EFEFEF",
";. c gray94",
":. c #F1F1F1",
">. c gray95",
",. c #F5F6F4",
"<. c #F6F6F6",
"1. c gray97",
"2. c #F8F8F8",
"3. c #F9F9F9",
"4. c #FAFAF9",
"5. c gray98",
"6. c #FBFBFA",
"7. c #FBFBFB",
"8. c gray99",
"9. c #FDFDFC",
"0. c #FDFDFD",
"q. c #FEFEFE",
"w. c white",
/* pixels */
"                                                                                                    ",
"                                                                                                    ",
"                                    b b b b b V b b b b b b b b                                     ",
"                                C - & & & & & & & & & & & & & & 1 H                                 ",
"                                b - & & & % % % % % & & & & & & 1 G                                 ",
"                            v k j g f f f f f f g f f f f f f f f k z                               ",
"                          H = . i M B B B B B B B B B B B B M M n 8 . :                             ",
"                          G < - d M B B M B B B B B B B B B B B M q ; 2 }                           ",
"                        u d l l n B B B B B B B M B B B B B B B B x x l p u                         ",
"                      . . 9 M B M B B B B B B B B B B B B B B B B B B M > .                         ",
"                      X . 8 M B B B B B M B B B B B B B B B B B B B B m , . u                       ",
"                      X . 9 M M B M B B B B B M B B B B B B B B B B B m , . u                       ",
"                      X . 8 M B B B B B M M M M M M M M M M M B B B B m , . u                       ",
"                  H G X . 4 f g c B B H Y U U U U U U U U U F M M x g f ; . 7 G H                   ",
"                a = = . . X $ + s B A  .q.q.q.q.q.9.q.q.9.9./ M n q @ $ . . + = & C                 ",
"                u . . . . . . . s B A O.q.q.q.q.q.q.q.q.q.q.` B M 8 . . . . . . . b                 ",
"                u . . . . u P K m t i b G G G G G G G G G G v r i Z P H 3 . . . . b                 ",
"                u . . . . b 5.q.G = O $ & & $ & & & & & $ & # O 1 _ q.2.7 . . . . b                 ",
"                h 1 1 . . b 5.q.H 3 1 1 1 1 1 1 1 1 1 1 1 1 1 1 7 ' q.5.7 . $ 1 < C                 ",
"            k v K Q E X . b q.q.@._ _ _ _ _ _ _ ( ( _ _ _ _ _ _ ' :.q.5.0 . w Q ( G v v             ",
"          v . 5 o.q.5.+ . b 5.q.q.q.q.q.q.q.q.q.q.q.q.q.q.q.q.q.q.q.q.5.7 . j 5.q.K : & D           ",
"          k . 5 o.q.1.3 1 Z q.q.q.q.q.5.<.5.q.q.q.q.q.5.1.<.8.q.q.q.q.5.u 1 v 9.q.P > = Z           ",
"          k . 5 o.q.q.&.&.>.q.q.q.q.5.G w a -.q.q.q.q._ u w Q q.q.q.q.q.-.&.:.q.q.P : - Z           ",
"          k . 5 o.q.q.q.q.q.q.q.q.q.5.b . 3 &.q.q.q.q.E : . P q.q.q.q.q.q.q.q.q.q.K : = Z           ",
"            0 a ' $.$.&.$.:.q.q.q.q.1.C . 3 &.q.q.q.q.E : . K q.q.q.q.q.&.$.%.$.&.H w w             ",
"                u = = = $ C 9.q.q.q.1.C . 3 &.q.q.q.q.E : . P q.q.q.q.5.0 = = = & N                 ",
"                u . . . . b q.q.q.q.1.b . 1 &.q.q.q.q.E - . P q.q.q.q.5.0 . . . . b                 ",
"                u . . . . a L E $.q.5.E Z G [  . . . .W Z Z } q.5.} E K 3 . . . . b                 ",
"                u . . . . & : = K q.q.q.4.<.F V V V B / 5.5.q.q.1.C : : X . . . . b                 ",
"                u . . . . . . . K q.q.q.q.4.F B B B B ^ q.q.q.q.5.C . . . . . . . b                 ",
"            b C H P P P K C & . j G G G G D d t t t r z G G G G G w . - H P P P P G C C             ",
"          k . 5 o.q.q.q.q._ : . . . . . . . . . . . . . . . . . . . . , :.q.q.q.q.K - = Z           ",
"          k . 5 o.q.q.q.q._ : . . . . . . . . . . . . . . . . . . . . , :.q.q.q.q.K > - Z           ",
"          k . 5 o.q.q.q.q.' : . . . . . . . . . . . . . . . . . . . . < :.q.q.q.q.P : = Z           ",
"            . 5 o.q.q.q.q._ : . . . . . . . . . . . . . . . . . . . . , :.q.q.q.q.P : = Z           ",
"            : 7 } 5.5.5.5._ - . O @ $ # # @ . . . . . o # # @ $ # X . , &.5.5.5.q.P 3 1             ",
"              +.j 0 0 0 0 3 X . 6 r t y t r ; . . . . 3 t t t t t 2 . + 7 7 0 0 7 C                 ",
"                u . . . . . . . 8 s s s s i ; . . . . 4 s s s s i 3 . . . . . . . b                 ",
"                  u w . . & , < 8 e e r r q 2 , < < > 6 e r e r e 4 < , O . , u u                   ",
"                      o . 2 y i 6 $ + + @ = r s y s s 8 % + + @ * 8 i y = . u                       ",
"                      X . 3 s s 6 . . . . % t s s s d 8 + . . . # 8 s s - . u                       ",
"                      O . 2 s s q 6 6 6 6 6 6 8 8 8 8 6 6 6 6 6 6 r s y - . u                       ",
"                      X . 2 s s i i i i i t > + + + O 4 y i i i s s s s - . u                       ",
"                        - 4 y y i i i i i y < = = = = 6 i i i i i s s y , & a                       ",
"                        Z v 8 6 6 6 6 6 4 8 C Z Z Z Z v 6 6 6 6 6 6 6 6 C D                         ",
"                          H = . . . . . . 1           G ; . . . . . . :                             ",
"                            2 , > , > , , 5             3 > , , , , , 3                             ",
"                                P P K P P                 P P P P P K                               ",
"                                                                                                    ",
"                                                                                                    "
};
