/* XPM */
static char *_133eaf4bef343abc4ad47a786179bb8S8SXeufplLjAlCEE[] = {
/* columns rows colors chars-per-pixel */
"64 64 252 2 ",
"   c black",
".  c #010000",
"X  c #000100",
"o  c #010100",
"O  c #000001",
"+  c #010001",
"@  c #000101",
"#  c #010101",
"$  c #020100",
"%  c #020101",
"&  c #010201",
"*  c #000002",
"=  c #010002",
"-  c #020102",
";  c gray1",
":  c #040404",
">  c gray2",
",  c #181516",
"<  c #2C2929",
"1  c #2C292A",
"2  c #2E2A2A",
"3  c #2D2C2B",
"4  c #312E2F",
"5  c #322F2F",
"6  c #393535",
"7  c #3B3837",
"8  c #3C3837",
"9  c #3E3A39",
"0  c #3E393A",
"q  c #433F3E",
"w  c #433E3F",
"e  c #443F3F",
"r  c #43403F",
"t  c #474241",
"y  c #474143",
"u  c #474242",
"i  c #444444",
"p  c #484242",
"a  c #4E4947",
"s  c #484848",
"d  c #4A4848",
"f  c #4E4948",
"g  c #524C4B",
"h  c #514C4C",
"j  c #534D4D",
"k  c #534E4C",
"l  c #554F4D",
"z  c #564F4E",
"x  c #57514F",
"c  c #505050",
"v  c #575151",
"b  c gray33",
"n  c #555555",
"m  c #585150",
"M  c #5C5455",
"N  c #5C5656",
"B  c #5F5958",
"V  c #5F5F5E",
"C  c #5F5F5F",
"Z  c #615A59",
"A  c #60595A",
"S  c #635D5B",
"D  c #645C5C",
"F  c #655D5C",
"G  c #655D5D",
"H  c #606060",
"J  c #626262",
"K  c #646464",
"L  c #656565",
"P  c #676565",
"I  c #676566",
"U  c gray40",
"Y  c #676666",
"T  c #676767",
"R  c #696161",
"E  c #6D6564",
"W  c #6E6564",
"Q  c #6E6465",
"!  c #6D6664",
"~  c #6F6666",
"^  c #696867",
"/  c #6C6768",
"(  c DimGray",
")  c #6A6A6A",
"_  c gray42",
"`  c #6C6C6C",
"'  c #706766",
"]  c #706767",
"[  c #706867",
"{  c #726968",
"}  c #70696A",
"|  c #746B68",
" . c #746B69",
".. c #766C6B",
"X. c #776C6B",
"o. c #766C6C",
"O. c #776D6D",
"+. c #776E6C",
"@. c #776E6D",
"#. c #786B6B",
"$. c #79706E",
"%. c #7A706E",
"&. c gray44",
"*. c #747474",
"=. c #817573",
"-. c #807772",
";. c #817673",
":. c #807773",
">. c #807574",
",. c #817574",
"<. c #817575",
"1. c #827474",
"2. c #827574",
"3. c #827575",
"4. c #837575",
"5. c #817674",
"6. c #827674",
"7. c #817776",
"8. c #817875",
"9. c #817876",
"0. c #827876",
"q. c #837977",
"w. c #837A77",
"e. c #827778",
"r. c #847879",
"t. c #847979",
"y. c #847B79",
"u. c #867B79",
"i. c #867C78",
"p. c #867C79",
"a. c #808080",
"s. c #818181",
"d. c #838383",
"f. c #848484",
"g. c gray54",
"h. c #8B8B8B",
"j. c #8D8B8A",
"k. c #9B8D8C",
"l. c #9B8F8D",
"z. c #9F938F",
"x. c #929190",
"c. c #939393",
"v. c #949391",
"b. c gray58",
"n. c #959595",
"m. c #979797",
"M. c #9F9390",
"N. c #9F9391",
"B. c #989898",
"V. c gray60",
"C. c #9A9A9A",
"Z. c gray62",
"A. c #A09390",
"S. c #A69795",
"D. c #A59896",
"F. c #A89B97",
"G. c #AB9A97",
"H. c #AA9B97",
"J. c #AB9B97",
"K. c #AC9B97",
"L. c #A89B98",
"P. c #A99B98",
"I. c #A99B99",
"U. c #AB9A98",
"Y. c #AA9B98",
"T. c #AA9A99",
"R. c #AA9B99",
"E. c #AA9A9A",
"W. c #AB9B9B",
"Q. c #AA9C98",
"!. c gray65",
"~. c #A8A7A7",
"^. c gray66",
"/. c #A9A9A8",
"(. c #A9A9A9",
"). c #AAAAAA",
"_. c #ACACAC",
"`. c gray68",
"'. c #AEADAD",
"]. c #AFAFAF",
"[. c #B9ACAB",
"{. c gray69",
"}. c #B1B1B1",
"|. c #B2B2B2",
" X c gray70",
".X c #BCBCBC",
"XX c gray74",
"oX c #C1B8B5",
"OX c #C1B9B6",
"+X c #C0C0C0",
"@X c #C1C1C1",
"#X c #C3C3C3",
"$X c gray77",
"%X c #C5C5C5",
"&X c #C6C6C6",
"*X c gray78",
"=X c #CAC3C1",
"-X c #CBC3C1",
";X c #CBC1C2",
":X c #C7C8C8",
">X c #C8C8C8",
",X c #CACACA",
"<X c #CBCBCB",
"1X c #CCC9C8",
"2X c #CECBC9",
"3X c #CDCDCD",
"4X c #CECECE",
"5X c gray81",
"6X c #D0CBC8",
"7X c #D4CECC",
"8X c #D4CECD",
"9X c #D4CFCE",
"0X c #D0D0D0",
"qX c #D0D1D1",
"wX c gray82",
"eX c LightGray",
"rX c #D5D5D5",
"tX c #D7D7D7",
"yX c #D8D8D8",
"uX c gray85",
"iX c #DADADA",
"pX c #DDDDDD",
"aX c gray87",
"sX c #DFDFDF",
"dX c #E1DDDC",
"fX c #E1DCDD",
"gX c #E1DDDD",
"hX c gray88",
"jX c #E1E1E1",
"kX c #E2E2E2",
"lX c gray89",
"zX c #E6E6E6",
"xX c #E7E7E7",
"cX c gray91",
"vX c #EAEAEA",
"bX c gray92",
"nX c gray93",
"mX c #EEEEEE",
"MX c #F0F0EF",
"NX c gray94",
"BX c #F1F1F1",
"VX c #F6F6F6",
"CX c gray99",
"ZX c #FDFDFD",
"AX c #FEFEFC",
"SX c #FEFEFD",
"DX c #FEFEFE",
"FX c #FFFEFE",
"GX c #FEFFFE",
"HX c #FFFFFE",
"JX c #FFFEFF",
"KX c white",
/* pixels */
"hXhXhXhXhXhXhXhXhXhXhXhXhXhXhXhXhXhXhXhXhXhXhXhXhXhXhXhXhXhXhXhXhXhXhXhXhXhXhXhXhXhXhXhXhXhXhXhXhXhXhXhXhXhXhXhXhXhXhXhXhXhXhXhX",
"hXhXhXhXhXhXhXhXhXhXhXhXhXhXhXhXhXhXhXhXhXhXhXhXhXhXhXhXhXhXhXhXhXhXhXhXhXhXhXhXhXhXhXhXhXhXhXhXhXhXhXhXhXhXhXhXhXhXhXhXhXhXhXhX",
"hXhXhXhXhXhXhXhXhXhXhXhXhXhXhXhXhXhXhXhXhXhXhXhXhXhXhXhXhXhXhXhXhXhXhXhXhXhXhXhXhXhXhXhXhXhXhXhXhXhXhXhXhXhXhXhXhXhXhXhXhXhXhXhX",
"hXhXhXhXhXhXhXhXhXhXhXhXhXhXhXhXhXhXhXhXhXf.&.&.&.&.&.&.&.&.&.&.&.&.&.&.&.&.&.&.&.&.^.hXhXhXhXhXhXhXhXhXhXhXhXhXhXhXhXhXhXhXhXhX",
"hXhXhXhXhXhXhXhXhXhXhXhXhXhXhXhXhXhXhXhXhXb                                         C.hXhXhXhXhXhXhXhXhXhXhXhXhXhXhXhXhXhXhXhXhX",
"hXhXhXhXhXhXhXhXhXhXhXhXhXhXhXhXhXsXhXhXhXb                                         b.hXhXhXhXhXhXhXhXhXhXhXhXhXhXhXhXhXhXhXhXhX",
"hXhXhXhXhXhXhXhXhXhXhXhXhXhXhXhXhXuX<X5X<XY a a a a a a a a a a a a a a a g a a a g v.<X<X<XsXsXhXhXhXhXhXhXhXhXhXhXhXhXhXhXhXhX",
"hXhXhXhXhXhXhXhXhXhXhXhXhXhXhXhXsX`.      z.G.I.I.G.L.L.L.L.L.L.L.L.L.D.G.L.K.L.L.L.0.      wXhXhXhXhXhXhXhXhXhXhXhXhXhXhXhXhXhX",
"hXhXhXhXhXhXhXhXhXhXhXhXhXhXhXhXhX`.      A.I.G.K.L.K.L.L.K.L.W.K.L.K.L.W.L.K.L.K.U.y.      wXhXhXhXhXhXhXhXhXhXhXhXhXhXhXhXhXhX",
"hXhXhXhXhXhXhXhXhXhXhXhXhXhXhXhXhX`.      A.G.I.W.K.L.W.K.L.K.K.L.K.L.K.K.L.L.K.W.L.y.      wXhXhXhXhXhXhXhXhXhXhXhXhXhXhXhXhXhX",
"hXhXhXhXhXhXhXhXhXhXhXhXhXhXb.b.b.j.p.p.p.I.I.K.L.L.L.K.W.L.K.L.L.W.K.L.L.K.W.K.K.L.l.y.p.p.x.b.b.|.hXhXhXhXhXhXhXhXhXhXhXhXhXhX",
"hXhXhXhXhXhXhXhXhXhXhXhXhXsX      ..G.L.L.L.I.I.L.K.K.L.K.L.L.K.K.K.L.K.K.L.L.L.L.K.L.U.I.G.r     d.hXhXhXhXhXhXhXhXhXhXhXhXhXhX",
"hXhXhXhXhXhXhXhXhXhXhXhXhXsX      ..Q.L.L.W.K.L.K.W.L.K.K.L.K.L.L.K.K.L.K.L.L.K.K.L.L.K.L.K.q     d.sXsXhXhXhXhXhXhXhXhXhXhXhXhX",
"hXhXhXhXhXhXhXhXhXhXhXhXhXsX       .Q.G.L.K.L.K.L.K.K.L.L.K.L.K.K.L.L.W.W.K.K.L.L.K.K.L.L.K.t     d.sXsXhXhXhXhXhXhXhXhXhXhXhXhX",
"hXhXhXhXhXhXhXhXhXhXhXhXhXsX      ..L.W.K.L.W.L.L.K.L.K.L.L.I.G.W.K.L.K.L.L.K.W.K.L.K.W.K.K.t     d.hXhXhXhXhXhXhXhXhXhXhXhXhXhX",
"hXhXhXhXhXhXhXhXhXhXhXhXhXsX      ..K.K.L.K.K.L.K.L.L.W.G.I.G.I.L.L.K.L.L.K.L.K.L.K.L.K.W.L.r     d.hXhXhXhXhXhXhXhXhXhXhXhXhXhX",
"hXhXhXhXhXhXhXhXhXhXhXhXhXsX       .K.G.G.G.L.I.I.K.G.G.G.G.G.G.G.G.G.I.G.Q.G.Q.I.I.I.G.G.I.e     d.hXhXsXhXhXhXhXhXhXhXhXhXhXhX",
"hXhXhXhXhXhXhXhXhXhX%X`.`.`.      x 0.0.0.D.I.I.[.9X9X9X9X9X9X9X9X9X9X7X7X7X7XQ.I.I.k.0.0.e.4     H `.`.`.rXhXhXhXhXhXhXhXhXhXhX",
"hXhXhXhXhXhXhXhXhXhXb.                    A.G.U.=XKXKXKXKXKXKXKXKXKXKXKXKXKXKXD.K.K.p.                    %XhXhXhXhXhXhXhXhXhXhX",
"hXhXhXhXhXhXhXhXhXhXb.                    A.L.G.;XKXKXKXKXKXKXKXKXKXKXKXKXKXKXG.I.G.0.                    %XhXhXhXhXhXhXhXhXhXhX",
"hXhXhXhXhXhXhXhXhXhXb.                    z.K.L.;XKXKXKXKXKXKXKXKXKXKXKXKXKXKXQ.G.I.r.                    %XhXhXhXhXhXhXhXhXhXhX",
"hXhXhXhXhXhXhXhXhXhXb.            !.BXBXBX) 8 8 d H H H H H H H H H H H H H V 6 8 8 ~.BXBXBXY             @XhXhXhXhXhXhXhXhXhXhX",
"hXhXhXhXhXhXhXhXhXhXb.            |.KXKXKXS                                         `.KXKXKX)             %XhXhXhXhXhXhXhXhXhXhX",
"hXhXhXhXhXhXhXhXhXhXb.            |.KXKXKXH                                         `.KXKXKX)             %XhXhXhXhXhXhXhXhXhXhX",
"hXhXhXhXhXhXuX.X.X.X^.C.C.b.      |.KXKXKX^.C.C.C.C.C.C.C.C.C.C.C.C.C.C.C.C.C.C.C.C.<XKXKXKX)     b C.C.C. X.X.X@XhXhXhXhXhXhXhX",
"hXhXhXhXhXhX<X      <XKXKXKX      |.KXKXKXKXKXKXKXKXKXKXKXKXKXKXKXKXKXKXKXKXKXKXKXKXKXKXKXKX)     x.KXKXKXh.    ) hXhXhXhXhXhXhX",
"hXhXhXhXhXhX<X      <XKXKXCX      `.KXKXKXKXKXKXKXKXKXKXKXKXKXKXKXKXKXKXKXKXKXKXKXKXKXKXKXKX)     b.KXKXKXg.    Y hXhXhXhXhXhXhX",
"hXhXhXhXhXhX<X      <XKXKXKX      |.KXKXKXKXKXKXKXKXKXKXKXKXKXKXKXKXKXKXKXKXKXKXKXKXKXKXKXKX)     b.KXKXKXh.    Y sXhXhXhXhXhXhX",
"hXhXhXhXhXhX<X      <XKXKXKXhXxXhXBXKXKXKXKXKXKXsXd.f.d.cXKXKXKXKXKXKX@Xd.f.f.KXKXKXKXKXKXKXcXhXlXcXKXKXKXg.    Y hXhXhXhXhXhXhX",
"hXhXhXhXhXhX<X      <XKXKXKXKXKXKXKXKXKXKXKXKXKXrX      hXKXKXKXKXKXKX^.      KXKXKXKXKXKXKXKXKXKXKXKXKXKXh.    Y hXhXhXhXhXhXhX",
"hXhXhXhXhXhX<X      <XKXKXKXKXKXKXKXKXKXKXKXKXKXrX      hXKXKXKXKXKXKX^.    > KXKXKXKXKXKXKXKXKXKXKXKXKXKXg.    Y hXhXhXhXhXhXhX",
"hXhXhXhXhXhX5X) ) ) @XcXxXxXcXcXcXBXKXKXKXKXKXKXrX      xXKXKXKXKXKXKX^.    > KXKXKXKXKXKXKXcXcXcXcXcXcXcXb.) ( g.hXhXhXhXhXhXhX",
"hXhXhXhXhXhXhXhXhXhXb.            `.KXKXKXKXKXKXrX      hXKXKXKXKXKXKX^.    > KXKXKXKXKXKXKX)             %XhXhXhXhXhXhXhXhXhXhX",
"hXhXhXhXhXhXhXhXhXhXb.            |.KXKXKXKXKXKXrX      hXKXKXKXKXKXKX^.    : KXKXKXKXKXKXKX)             @XhXhXhXhXhXhXhXhXhXhX",
"hXhXhXhXhXhXhXhXhXhXb.            |.KXKXKXKXKXKXrX      lXKXKXKXKXKXKX^.    : KXKXKXKXKXKXKX)             %XhXhXhXhXhXhXhXhXhXhX",
"hXhXhXhXhXhXhXhXhXhXb.            *.^.^.^.VXKXKXnX<X<X<X2X6X2X7X6X6X6X1X<X<X<XKXKXKXsX^.^.^.i             %XhXhXhXhXhXhXhXhXhXhX",
"hXhXhXhXhXhXhXhXhXhXb.                    BXKXKXKXKXKXKXOXK.L.K.K.L.K.fXKXKXKXKXKXKX%X                    %XhXhXhXhXhXhXhXhXhXhX",
"hXhXhXhXhXhXhXhXhXhXb.                    BXKXKXKXKXKXKXOXL.K.L.L.L.K.fXKXKXKXKXKXKX<X                    @XhXhXhXhXhXhXhXhXhXhX",
"hXhXhXhXsXhXhXhXhXhXb.> > >   > >         BXKXKXKXKXKXAXOXK.L.K.K.L.I.fXKXKXKXKXKXKX<X      >   > >   > > %XhXhXhXhXhXhXhXhXhXhX",
"hXhXhXhXsXsX5X      <XKXKXKXKXKXKX%X                                                        nXKXKXKXKXKXKXg.    Y hXhXhXhXhXhXhX",
"hXhXhXhXhXhX5X      <XKXKXKXKXKXKX%X                                                        nXKXKXKXKXKXKXh.    Y hXhXhXhXhXhXhX",
"hXhXhXhXhXhX<X      <XKXKXKXKXKXKX%X                                                        nXKXKXKXKXKXKXh.    Y hXhXhXhXhXhXhX",
"hXhXhXhXhXhX<X      <XKXKXKXKXKXKX%X                                                        nXKXKXKXKXKXKXg.    Y hXhXhXhXhXhXhX",
"hXhXhXhXhXhX<X      <XKXKXKXKXKXKX@X                                                        nXKXKXKXKXKXKXh.    Y hXhXhXhXhXhXhX",
"hXhXhXhXhXhX<X      <XKXKXKXKXKXKX%X                                              ;         nXKXKXKXKXKXKXg.    Y hXhXhXhXhXhXhX",
"hXhXhXhXhXhX<X      <XKXKXKXKXKXKX%X        ;       ;                     ;                 nXKXKXKXKXKXKXg.    ( hXhXhXhXhXhXhX",
"hXhXhXhXhXhXsX5XwX5XZ.` ` ` ` ` ` c       [ @.@...+.+.+.6             N @.+.+.+.@.$.N       Y ` ` ` ` ` _ .XqXqXqXhXhXhXhXhXhXhX",
"hXhXhXhXhXhXhXsXhXhXb.                    $.4.4.4.:.4.:.w           ; G 4.4.0.:.4.4.D                     #XsXhXhXhXhXhXhXhXhXhX",
"hXhXhXhXhXhXhXhXhXhXb.    >         ;     %.4.%.0.0.4.4.8             G %.4.%.4.%.4.S                     @XhXhXhXhXhXhXhXhXhXhX",
"hXhXhXhXhXhXhXhXhXhX`.d.d.*.      3 t t y R Q ! ~ ! ! ! g p p p p p i B { ! { ' { ! B t p p ,     d d.d.d.5XhXhXhXhXhXhXhXhXhXhX",
"hXhXhXhXhXhXhXhXhXhXhXhXhXhX      m 0.0.4.1             [ 0.0.0.4.4.4.j           ; x 4.4.4.5     d.sXsXhXhXhXhXhXhXhXhXhXhXhXhX",
"hXhXhXhXhXhXhXhXhXhXhXhXhXhX      x :.0.4.1             [ 0.4.%.4.0.4.j ;           x 0.%.4.5     d.sXsXhXhXhXhXhXhXhXhXhXhXhXhX",
"hXhXhXhXhXhXhXhXhXhXhXhXhXhX      m 4.0.4.2     ;        .:.4.4.%.%.q.z         ;   z 4.:.:.4     d.hXhXhXhXhXhXhXhXhXhXhXhXhXhX",
"hXhXhXhXhXhXhXhXhXhXhXhXhXhX    ; m 4.%.:.{ [ [ ] ] ' ' h e q e t t r Z ' [ ' ' / ] ..:.:.:.5     d.hXhXhXhXhXhXhXhXhXhXhXhXhXhX",
"hXhXhXhXhXhXhXhXhXhXhXhXhXsX      m :.4.4.:.0.4.4.0.0.:.0             G 8.:.:.4.:.4.4.:.0.0.5     d.sXsXhXhXhXhXhXhXhXhXhXhXhXhX",
"hXhXhXhXhXhXhXhXhXhXhXhXhXhX      M %.:.:.:.0.%.0.%.8.:.0             G 0.0.%.:.:.:.:.:.%.4.5     d.sXsXhXhXhXhXhXhXhXhXhXhXhXhX",
"hXhXhXhXhXhXhXhXhXhXhXhXhXhXY Y Y / o.+.o.o.+.o.o.+.+.#.Y Y Y Y Y Y T ` o.+.o.o.+.o.o.+. .#.T Y Y C.hXhXhXhXhXhXhXhXhXhXhXhXhXhX",
"hXhXhXhXhXhXhXhXhXhXhXhXhXhXhXsXhX`.                    &XsXsXhXhXsXhXb.                    wXhXsXhXhXhXhXhXhXhXhXhXhXhXhXhXhXhX",
"hXhXhXhXhXhXhXhXhXhXhXhXhXhXhXhXhX`.                    &XhXhXhXhXhXhXb.                    wXhXhXhXhXhXhXhXhXhXhXhXhXhXhXhXhXhX",
"hXhXhXhXhXhXhXhXhXhXhXhXhXhXhXhXhX`.                    :XhXhXhXhXhXhXb.                    wXhXhXhXhXhXhXhXhXhXhXhXhXhXhXhXhXhX",
"hXhXhXhXhXhXhXhXhXhXhXhXhXhXhXhXhX5X|.|.|.|.|.|.|.|.|.|.uXhXhXhXhXhXhX%X|.|.|.{.|.|.{.|.|.|.uXhXhXhXhXhXhXhXhXhXhXhXhXhXhXhXhXhX",
"hXhXhXhXhXhXhXhXhXhXhXhXhXhXhXhXhXhXsXsXsXsXsXhXsXhXsXsXhXhXhXhXhXhXhXhXhXhXhXsXhXhXsXhXhXhXhXhXhXhXhXhXhXhXhXhXhXhXhXhXhXhXhXhX",
"hXhXhXhXhXhXhXhXhXhXhXhXhXhXhXhXhXhXhXhXsXhXhXhXhXhXsXhXhXhXhXhXhXhXhXhXhXhXhXhXhXhXhXhXhXhXhXhXhXhXhXhXhXhXhXhXhXhXhXhXhXhXhXhX",
"hXhXhXhXhXhXhXhXhXhXhXhXhXhXhXhXhXhXhXhXhXhXhXhXhXhXhXhXhXhXhXhXhXhXhXhXhXhXhXhXhXhXhXhXhXhXhXhXhXhXhXhXhXhXhXhXhXhXhXhXhXhXhXhX"
};
