/* XPM */
static char *d97370e0bef54538d1b7d2e881a6c861orkIhuHH07zkCeMI[] = {
/* columns rows colors chars-per-pixel */
"50 50 127 2 ",
"   c #000000",
".  c #0D0D0D",
"X  c #110F0F",
"o  c #110F10",
"O  c #151313",
"+  c #191716",
"@  c #1A1817",
"#  c #1D1B1B",
"$  c #221F1F",
"%  c #222221",
"&  c #292625",
"*  c #272728",
"=  c #2B2A2A",
"-  c #312D2D",
";  c #333333",
":  c #393635",
">  c #3C3A3A",
",  c #423F3E",
"<  c #454545",
"1  c #4B4645",
"2  c #4C4B4B",
"3  c #544E4D",
"4  c #525252",
"5  c #5A5252",
"6  c #5E5E5E",
"7  c #645C5A",
"8  c #69605F",
"9  c #626262",
"0  c #6D6563",
"q  c #6D6D6D",
"w  c #706766",
"e  c #746B69",
"r  c #786E6C",
"t  c #7A706E",
"y  c #737373",
"u  c #7E7472",
"i  c #797877",
"p  c #7B7B7B",
"a  c #817774",
"s  c #827B7A",
"d  c #897E7C",
"f  c #8C817E",
"g  c #848484",
"h  c #8B8685",
"j  c #8D8D8D",
"k  c #958986",
"l  c #948F8F",
"z  c #988A89",
"x  c #9D908E",
"c  c #949393",
"v  c #9E9E9E",
"b  c #A59693",
"n  c #A79895",
"m  c #A99996",
"M  c #A19E9F",
"N  c #AA9B98",
"B  c #AEA09D",
"V  c #A2A2A2",
"C  c #ADADAD",
"Z  c #B2A4A1",
"A  c #BAAFAD",
"S  c #B0B0AF",
"D  c #BCB1AE",
"F  c #B4B4B4",
"G  c #BBBBBB",
"H  c #C0B6B5",
"J  c #C2C2C2",
"K  c gray77",
"L  c #C5C5C5",
"P  c #C6C6C6",
"I  c gray78",
"U  c #C2C2C2",
"Y  c #CCC4C3",
"T  c #CCC5C3",
"R  c #CCC5C4",
"E  c #C8C8C8",
"W  c gray79",
"Q  c #CBCBCB",
"!  c #CCC9C8",
"~  c #CDCDCD",
"^  c #CECECE",
"/  c #D2CBCA",
"(  c #D3CCCB",
")  c #D4CFCD",
"_  c gray82",
"`  c #D2D2D2",
"'  c LightGray",
"]  c #D7D2D0",
"[  c gray83",
"{  c #D5D5D5",
"}  c #D8D6D4",
"|  c #DDDDDD",
" . c gray87",
".. c #DFDFDF",
"X. c #E0DDDB",
"o. c #E4E0DF",
"O. c #E2E2E2",
"+. c gray89",
"@. c #E6E3E2",
"#. c #E6E6E6",
"$. c #E7E7E7",
"%. c #E6E6E6",
"&. c gray91",
"*. c #E9E9E9",
"=. c #EAEAEA",
"-. c #ECECEC",
";. c gray93",
":. c #EEEEEE",
">. c #EFEFEF",
",. c gray94",
"<. c #F1F1F1",
"1. c gray95",
"2. c #F5F6F4",
"3. c #F6F6F6",
"4. c gray97",
"5. c #F8F8F8",
"6. c #F9F9F9",
"7. c #FAFAF9",
"8. c gray98",
"9. c #FBFBFA",
"0. c #FBFBFB",
"q. c gray99",
"w. c #FDFDFC",
"e. c #FDFDFD",
"r. c #FEFEFE",
"t. c white",
"y. c white",
/* pixels */
"t.t.t.t.t.t.t.t.t.t.t.t.t.t.t.t.t.t.t.t.t.t.t.t.t.t.t.t.t.t.t.t.t.t.t.t.t.t.t.t.t.t.t.t.t.t.t.t.t.t.",
"t.t.t.t.t.t.t.t.t.t.t.t.t.t.t.t.t.t.t.t.t.t.t.t.t.t.t.t.t.t.t.t.t.t.t.t.t.t.t.t.t.t.t.t.t.t.t.t.t.t.",
"t.t.t.t.t.t.t.t.t.t.t.t.t.t.t.t.J V v v v v v M v v v v v v v v V  .t.t.t.t.t.t.t.t.t.t.t.t.t.t.t.t.",
"t.t.t.t.t.t.t.t.t.t.t.t.t.t.t.t.v = % % % % % % % % % % % % % % < G t.t.t.t.t.t.t.t.t.t.t.t.t.t.t.t.",
"t.t.t.t.t.t.t.t.t.t.t.t.t.t.t.t.v = % $ % $ % $ $ $ $ % % % % $ < F t.t.t.t.t.t.t.t.t.t.t.t.t.t.t.t.",
"t.t.t.t.t.t.t.t.t.t.t.t.t.W c j h d d d d d d d f d f d s d d d d j l c t.t.t.t.t.t.t.t.t.t.t.t.t.t.",
"t.t.t.t.t.t.t.t.t.t.t.t.t.G *   u m N N N N N N N N N N N N m N n 7   ; t.t.t.t.t.t.t.t.t.t.t.t.t.t.",
"t.t.t.t.t.t.t.t.t.t.t.t.t.F , = s m N N N m N N N N N N N N N N b w - <  .t.t.t.t.t.t.t.t.t.t.t.t.t.",
"t.t.t.t.t.t.t.t.t.t.t.y y s k k b N N N N N N N N N m N N N N N m l z z i y c t.t.t.t.t.t.t.t.t.t.t.",
"t.t.t.t.t.t.t.t.t.t.t.    8 m N m N N N N N N N N N N N N N N N N N N n :   y t.t.t.t.t.t.t.t.t.t.t.",
"t.t.t.t.t.t.t.t.t.t.t..   7 m N m N N N N N m N N N N N N N N N N N N n >   y t.t.t.t.t.t.t.t.t.t.t.",
"t.t.t.t.t.t.t.t.t.t.t..   8 m m N N N N N N m m N N N N N N N N N N N n >   y t.t.t.t.t.t.t.t.t.t.t.",
"t.t.t.t.t.t.t.t.t.t.t..   7 m N N N N m m m m m m m m m n m m N N N N n >   y t.t.t.t.t.t.t.t.t.t.t.",
"t.t.t.t.t.t.t.t.K G F .   3 d f x N N G T Y Y T T T T T T T D N m z f d -   6 F G %.t.t.t.t.t.t.t.t.",
"t.t.t.t.t.t.t.t.p & *     . # O a N Z X.0.t.t.0.w.t.t.0.w.w.) m b 0 + #     O * % v t.t.t.t.t.t.t.t.",
"t.t.t.t.t.t.t.t.y               a N Z @.t.t.t.t.t.t.t.t.t.t.] N m 7               v t.t.t.t.t.t.t.t.",
"t.t.t.t.t.t.t.t.y         y J J M e u M F F F F F F F F F F c e u C J G 2         v t.t.t.t.t.t.t.t.",
"t.t.t.t.t.t.t.t.y         v 6.t.F & O # % % # % % % % % % $ @ . < _ t.5.6         v t.t.t.t.t.t.t.t.",
"t.t.t.t.t.t.t.t.g < <     v q.t.G 2 < < 2 < < < < < < < < < < < 6 [ t.6.6   # < < V t.t.q.t.t.t.t.t.",
"t.t.t.t.t.F j c J _ W .   v 6.t.&._ _ _ _ _ _ _ _ _ ' ` ' ` ` ' [ <.t.6.9   q ^ _ F j c J t.t.t.t.t.",
"t.t.t.t.t.j   4 O.t.4.O   v q.t.t.t.t.t.t.t.t.t.t.t.t.t.t.t.t.t.t.t.t.6.6   g 6.t.J ; % S t.t.t.t.t.",
"t.t.t.t.t.j   4 O.t.4.2 2 V q.t.t.t.t.6.3.3.t.t.t.t.t.q.4.3.6.t.t.t.t.6.y < c q.t.J ; = C t.t.t.t.t.",
"t.t.t.t.t.j   4 O.t.t.-.-.<.t.t.t.t.6.F q p ,.t.t.t.t._ y q ^ t.t.t.t.t.,.-.-.t.t.J : * C t.t.t.t.t.",
"t.t.t.t.t.j   4 O.t.t.t.t.t.t.t.t.t.6.v   2 -.t.t.t.t.W ;   J t.t.t.t.t.t.t.t.t.t.J ; & C t.t.t.t.t.",
"t.t.t.t.t.M 9 p _ =.*.*.*.,.t.t.t.t.3.V   2 -.t.t.t.t.W :   J t.t.t.t.t.=.=.$.=.=.G q q G t.t.t.t.t.",
"t.t.t.t.t.t.t.t.i & * = # V q.t.t.t.4.V   2 -.t.t.t.t.W :   J t.t.t.t.6.q % = = % v t.t.t.t.t.t.t.t.",
"t.t.t.t.t.t.t.t.y         V q.t.t.t.6.v   < -.t.t.t.t.W =   J t.t.t.t.6.6         v t.t.t.t.t.t.t.t.",
"t.t.t.t.t.t.t.t.y         p K W $.t.6.^ C S } X.X.X.X.! C C | t.q.| W U 2         v t.t.t.t.t.t.t.t.",
"t.t.t.t.t.t.t.t.y         # : = K t.t.6.0.2.D B Z Z N / 6.6.t.t.6.V ; : .         v t.t.t.t.t.t.t.t.",
"t.t.t.t.t.t.t.t.y               K t.t.t.t.6.D N m N N ( t.t.t.t.6.v               v t.t.t.t.t.t.t.t.",
"t.t.t.t.t.G v V G J J J K V %   h F F F F S f e e e e l F F F F C y   ; F K J J J F v V K t.t.t.t.t.",
"t.t.t.t.t.j   4 O.t.t.t.t.' ;                                         > <.t.t.t.q.J ; & C t.t.t.t.t.",
"t.t.t.t.t.j   4 O.t.t.t.t.[ ;                                         > <.t.t.t.t.J : = C t.t.t.t.t.",
"t.t.t.t.t.j   4 O.t.t.t.t._ ;                                         , <.t.t.t.t.J ; = C t.t.t.t.t.",
"t.t.t.t.t.j   4 O.t.t.t.t.' ;                                         > <.t.t.t.t.K : = C t.t.t.t.t.",
"t.t.t.t.t.c ; 6  .6.6.6.6._ =   o + # + @ +           o + + # @ + .   , -.6.6.6.6.J < < S t.t.t.t.t.",
"t.t.t.t.t.t.t.$.h 9 9 9 9 2 .   5 r r t r e =         3 e r r r r <   O 5 9 9 9 6 V t.t.t.t.t.t.t.t.",
"t.t.t.t.t.t.t.t.y               7 a a a a a -         3 a a a a a 1               v t.t.t.t.t.t.t.t.",
"t.t.t.t.t.t.t.t.c y q     % , > 5 e e w e 0 1 > , > , 5 w e w e w 5 > , O   > y q F t.t.t.t.t.t.t.t.",
"t.t.t.t.t.t.t.t.t.t.t.X   1 t u 5 + + + + & r a u u r 7 $ O + O & 7 u t =   q t.t.t.t.t.t.t.t.t.t.t.",
"t.t.t.t.t.t.t.t.t.t.t..   2 a a 5         $ r a a a a 8 O       # 8 a t =   y t.t.t.t.t.t.t.t.t.t.t.",
"t.t.t.t.t.t.t.t.t.t.t..   1 a a 0 5 5 5 5 5 5 7 7 6 7 5 5 5 5 5 5 e a u =   y t.t.t.t.t.t.t.t.t.t.t.",
"t.t.t.t.t.t.t.t.t.t.t.o   1 a a u u u u u t : O O O o 3 t u u u a a a u &   y t.t.t.t.t.t.t.t.t.t.t.",
"t.t.t.t.t.t.t.t.t.t.t.= & 3 a t u u u u u t > = = & * 5 u u u u u u u t > & p t.t.t.t.t.t.t.t.t.t.t.",
"t.t.t.t.t.t.t.t.t.t.t.C C c 5 5 5 5 3 5 3 6 V C C C C l 5 5 5 5 3 5 3 7 V C G t.t.t.t.t.t.t.t.t.t.t.",
"t.t.t.t.t.t.t.t.t.t.t.t.t.G =             < t.t.t.t.t.S -             ; t.t.t.t.t.t.t.t.t.t.t.t.t.t.",
"t.t.t.t.t.t.t.t.t.t.t.t.t.G 2 > : > > > : 5 t.t.t.t.t.F < > > > > > > 2 t.t.t.t.t.t.t.t.t.t.t.t.t.t.",
"t.t.t.t.t.t.t.t.t.t.t.t.t.t.J J J J J J K K t.t.t.t.t.t.J J J J J J J K t.t.t.t.t.t.t.t.t.t.t.t.t.t.",
"t.t.t.t.t.t.t.t.t.t.t.t.t.t.t.t.t.t.t.t.t.t.t.t.t.t.t.t.t.t.t.t.t.t.t.t.t.t.t.t.t.t.t.t.t.t.t.t.t.t.",
"t.t.t.t.t.t.t.t.t.t.t.t.t.t.t.t.t.t.t.t.t.t.t.t.t.t.t.t.t.t.t.t.t.t.t.t.t.t.t.t.t.t.t.t.t.t.t.t.t.t."
};
