/* XPM */
static char *_449989f71744351ae60606db3f87beesawYUVuIqJu1Ld9a[] = {
/* columns rows colors chars-per-pixel */
"50 50 4 1 ",
"  c black",
". c #000100",
"X c #010001",
"o c white",
/* pixels */
"                                                  ",
"                                                  ",
"                                                  ",
"                                                  ",
"                                                  ",
"                                                  ",
"                                                  ",
"                              o                   ",
"        ooooooooo             o                   ",
"      oo o      o             o          X X      ",
"         o      o             o                   ",
"         o oooooo             o                   ",
"        oo     o       ooooooooooooo              ",
"        o                   o       X      X      ",
"       o                    o    o                ",
"       o                    o   oo                ",
"      o                     oo o                 X",
"      o                   ooooooooo               ",
"     o      o                                     ",
"    oo o  o  o            oo    o                 ",
"    o  ooo   o o            oooooo                ",
"    o   oo oooo                 oX                ",
"   oo   oo                     oXXXX              ",
"                               oXXXXX             ",
"                                       X          ",
"                                                  ",
"                                  X               ",
"                                                  ",
"                                                  ",
"                        o                         ",
"                        o                         ",
"              oooooooooooooooo                    ",
"                        o                         ",
"                        o                         ",
"                        o                        X",
"           o            o                         ",
"           oo           o                         ",
"             ooooooooooooooooooooooooooo          ",
"                      XX                          ",
"                      XX                          ",
"                XXXXXXXX                          ",
"                XXXXXXXX                          ",
"                XXXXXXXX                          ",
"                XXXXXXXX                          ",
"                XXXXXXXX                          ",
"                XXXXXXXX                          ",
"                XXXXXXXX                          ",
"                XXXXXXX                           ",
"                                                  ",
"                                                  "
};
