/* XPM */
static char *_e19b2be01eb48b2869fd7157f4fc908S5yqqIQAWqBgTJWN[] = {
/* columns rows colors chars-per-pixel */
"50 50 3 1 ",
"  c black",
". c #010101",
"X c white",
/* pixels */
"                .           .                     ",
"                             .                    ",
"                                                  ",
"                                                . ",
"                   .     .                        ",
"                                             .    ",
"                             .                    ",
"                             .                    ",
"                        . X                       ",
"                          X                       ",
"                          X                       ",
"                          X              .        ",
"                          X                       ",
"                          X          .            ",
"                          X                       ",
"                XXXXXXXXXXXXXXXXXX                ",
"              XXX                .                ",
"             X                                    ",
"             X                  .              .  ",
"              X                   .  .         .  ",
"              X                                   ",
"              X                   .          .    ",
"              X         X         .               ",
"              X         X                         ",
"              X         X            .            ",
"              X         X                         ",
"              X         X                         ",
"              X         X            .            ",
"              X         X                         ",
"              X         X                         ",
"              X XX      X                         ",
"              X   XXX   X                         ",
"              X      XXXXXXXXXX                   ",
"              X         X                         ",
"   .       .  X       X X                         ",
"             X       X  XX                        ",
"             X     XX    XX                       ",
"             X   XX      X X                      ",
"             XXXX        X  XX                    ",
"            X            X    X                   ",
"           XX                  XX.                ",
"                                                  ",
"                                                  ",
"                                                  ",
"                                                  ",
"                                                  ",
"                                                  ",
"                                                  ",
"                                                  ",
"                                                  "
};
