/* XPM */
static char *e6043c8d970246f3848917b985d38bb4JaUEifVjiYLkLWAP[] = {
/* columns rows colors chars-per-pixel */
"50 50 4 1 ",
"  c black",
". c #010001",
"X c #000101",
"o c white",
/* pixels */
"                                              X   ",
"                                              X   ",
"                                                  ",
"                                                X ",
"                                                  ",
"                                                  ",
"                                                  ",
"                                                  ",
"                                                  ",
"                                                  ",
"             ooo                                  ",
"                ooooooooooooooooooooooooooooooo   ",
"                o                                 ",
"                o                                 ",
"                o                                 ",
"                o                                 ",
"                o                                 ",
"                o                                 ",
"                o                                 ",
"                o                                 ",
"                o                                 ",
"                o                                 ",
"                o                                 ",
"                o                                 ",
"                o                                 ",
"               o                                  ",
"               ooo     oo            ooooo        ",
"               o  ooooo  oooooooooooo             ",
"   X           o                                  ",
"               o                                  ",
"XX X           o                                  ",
"               o                                  ",
"               o                                  ",
"  X            o                                  ",
"               o                                  ",
"           X   o                              X   ",
" X  X          o                                  ",
"               o                        X         ",
"               o                                  ",
"    X          o                                  ",
"               o                                  ",
"               o                                  ",
"               o                                  ",
"               oo        ooooooooooooooooo        ",
"               oooooooooo                         ",
"                                                  ",
"                                                  ",
"                                                  ",
"                                                  ",
"                                                  "
};
