/* XPM */
static char *bf77adcce5c94b9bd1d84595f1bfcc3avzqCBMDoRVPDWqKF[] = {
/* columns rows colors chars-per-pixel */
"50 50 5 1 ",
"  c black",
". c #010100",
"X c #010001",
"o c #000101",
"O c white",
/* pixels */
"                        o              o.         ",
"                            o  o     o       .    ",
"                                                  ",
"                         o                        ",
"               o                                  ",
"           o         o     o                o     ",
"                   o           o  .             o ",
"         o             o      .       o           ",
"                                         o        ",
"                         .    o           o       ",
"                             .                    ",
"                                                  ",
"                              .                   ",
"                       OOO    .            o    o ",
"                     OOO  OOO             .       ",
"                    OO       OO                   ",
"                    O          OO                 ",
"                   O                              ",
"                   O                              ",
"                  O             .                 ",
"                  O                               ",
"                 O                                ",
"                 O                                ",
"                 O                 .              ",
"                 O               o   o            ",
"                 O                          oo    ",
"                O                                 ",
"                O                   .           o ",
"                 O                  . .           ",
"                 O                                ",
"    o            O                                ",
"      o          O                                ",
"                  O                               ",
"                  O                             . ",
"  o                OO                             ",
"      o        .     O                            ",
"           o          OO             O            ",
"        o               OOOO        OO            ",
"   .                        OOOOOOOOO             ",
"               .                                  ",
"                        o                         ",
"                              oo                  ",
"   o                          .                   ",
"                                    o             ",
"       o             o   o    .                   ",
".                o                o               ",
"                               o                  ",
"          o       o              o                ",
"   o                  .           o     o         ",
"   o          o                            o .  .."
};
